<?xml version="1.0" encoding="UTF-8" standalone="no"?>
<svg
   width="1000"
   height="2000"
   viewBox="0 0 1000 2000"
   version="1.1"
   xmlns="http://www.w3.org/2000/svg"
   xmlns:svg="http://www.w3.org/2000/svg">
  <g>
    <path d="m 116.8344,1000.4006 q 0,-208.41663 42.48492,-335.06982 43.2865,-127.455 127.45477,-196.39277 Q 371.74416,400 500.0005,400 q 94.5893,0 165.932,38.47702 71.3425,37.67544 117.8356,109.81954 46.4931,71.34275 72.9459,174.74964 26.4529,102.60507 26.4529,277.3544 0,206.8139 -42.485,334.2686 Q 798.1971,1461.3226 713.227,1531.0621 629.0587,1600 500.0005,1600 330.06081,1600 233.06681,1478.1563 116.8344,1331.4629 116.8344,1000.4006 Z m 148.29656,0 q 0,289.379 67.3346,385.5713 68.13623,95.3907 167.53494,95.3907 99.3987,0 166.7336,-96.1923 68.1362,-96.1923 68.1362,-384.7697 0,-290.18015 -68.1362,-385.57101 -67.3349,-95.39063 -168.33671,-95.39063 -99.39875,0 -158.71734,84.16827 -74.54909,107.4148 -74.54909,396.79337 z"/>
  </g>
</svg>
