<?xml version="1.0" encoding="UTF-8" standalone="no"?>
<svg
   width="1000"
   height="2000"
   viewBox="0 0 1000 2000"
   version="1.1"
   xmlns="http://www.w3.org/2000/svg"
   xmlns:svg="http://www.w3.org/2000/svg">
  <g>
    <path d="M 895.038,1458.9675 V 1600 H 105.09277 q -1.63275,-52.989 17.12025,-101.9021 30.16312,-80.7065 96.1957,-158.9672 66.84777,-78.261 192.39115,-180.9782 194.83673,-159.78257 263.31493,-252.71724 68.4784,-93.74989 68.4784,-176.90202 0,-87.22833 -62.7718,-146.73912 -61.9564,-60.32599 -162.228,-60.32599 -105.97834,0 -169.56534,63.58677 -63.58676,63.58703 -64.40196,176.08709 L 132.81101,745.65211 Q 148.30087,576.90202 249.38702,488.85872 350.47388,400 520.8541,400 q 172.0109,0 272.2825,95.38051 100.2717,95.38027 100.2717,236.41278 0,71.73922 -29.3479,141.03261 -29.3477,69.29332 -97.8261,145.9237 -67.6629,76.6305 -225.815,210.3261 -132.06501,110.8695 -169.56511,150.8152 -37.49985,39.1302 -61.95637,79.0759 z"/>
  </g>
</svg>
