<?xml version="1.0" encoding="UTF-8" standalone="no"?>
<svg
   width="1000"
   height="2000"
   viewBox="0 0 1000 2000"
   version="1.1"
   xmlns="http://www.w3.org/2000/svg"
   xmlns:svg="http://www.w3.org/2000/svg">
  <g>
    <path d="m 115.48668,1269.1564 144.19236,-19.2251 q 24.8331,122.5634 84.11209,177.0362 60.08004,53.6715 145.79444,53.6715 101.73541,0 171.42851,-70.4942 70.4938,-70.4938 70.4938,-174.6328 0,-99.3324 -64.8865,-163.418 -64.8866,-64.8865 -165.0198,-64.8865 -40.85457,0 -101.73565,16.0209 l 16.02091,-126.56841 q 14.41882,1.6047 23.23148,1.6047 92.12306,0 165.82116,-48.06406 73.6983,-48.06415 73.6983,-148.19763 0,-79.30583 -53.6717,-131.37515 -53.6715,-52.06934 -138.5847,-52.06934 -84.11207,0 -140.18688,52.87039 -56.0748,52.8706 -72.09617,158.61161 L 129.90619,704.40585 Q 156.34139,559.41269 250.06626,480.10687 343.79137,400 483.17719,400 q 96.12809,0 177.03579,41.65553 80.9079,40.85447 123.3645,112.1496 43.2578,71.29511 43.2578,151.40199 0,76.10143 -40.8545,138.58458 -40.8544,62.48339 -120.9613,99.33239 104.1389,24.03182 161.8158,100.13351 57.677,75.3004 57.677,189.0521 0,153.8051 -112.1497,261.1483 Q 660.21298,1600 488.78475,1600 334.17858,1600 231.64174,1507.8771 129.90619,1415.7542 115.48691,1269.1588 Z"/>
  </g>
</svg>
