<?xml version="1.0" encoding="UTF-8" standalone="no"?>
<svg
   width="1000"
   height="2000"
   viewBox="0 0 1000 2000"
   version="1.1"
   xmlns="http://www.w3.org/2000/svg"
   xmlns:svg="http://www.w3.org/2000/svg">
  <g>
    <path d="m 103.535,1266.3483 154.18074,-13.052 q 17.1319,112.5766 79.12996,169.6804 62.81428,56.2883 150.9177,56.2883 106.0501,0 179.4696,-79.9455 73.4195,-79.9457 73.4195,-212.1007 0,-125.6288 -70.972,-198.23261 -70.1565,-72.60348 -184.36454,-72.60348 -70.97205,0 -128.07608,32.63089 -57.10404,31.81491 -89.73494,83.2087 L 129.63966,1014.2758 245.47925,400 H 840.1767 V 540.31271 H 362.95036 l -64.44604,321.41394 q 107.6819,-75.051 225.96868,-75.051 156.6283,0 264.3101,108.49758 107.6819,108.49767 107.6819,278.99407 0,162.3384 -94.6296,280.6252 Q 686.8118,1600 487.7634,1600 324.60898,1600 221.0061,1508.6336 118.21894,1417.2672 103.535,1266.3494 Z"/>
  </g>
</svg>
