<?xml version="1.0" encoding="UTF-8" standalone="no"?>
<svg
   width="1000"
   height="2000"
   viewBox="0 0 1000 2000"
   version="1.1"
   xmlns="http://www.w3.org/2000/svg"
   xmlns:svg="http://www.w3.org/2000/svg">
  <g>
    <path d="M 867.1342,692.58543 723.6473,703.8076 q -19.2379,-84.96987 -54.509,-123.44689 -58.5171,-61.72333 -144.2885,-61.72333 -68.93799,0 -121.04216,38.47679 -68.13616,49.69934 -107.41476,145.09026 -39.27861,95.39084 -40.88178,271.74341 52.10411,-79.35856 127.45474,-117.83557 75.35088,-38.47702 157.91596,-38.47702 144.2885,0 245.2907,106.61317 101.8035,105.81168 101.8035,274.14838 0,110.6212 -48.0963,206.012 -47.2946,94.589 -130.6613,145.09 Q 625.8517,1600 520.0401,1600 339.67932,1600 225.85166,1467.7353 112.024,1334.6692 112.024,1030.0601 112.024,689.37886 237.87588,534.66944 347.69539,400 533.6674,400 q 138.6774,0 226.8535,77.75562 88.978,77.75538 106.6133,214.82958 z M 277.95606,1199.1986 q 0,74.5492 31.26231,142.6853 32.06412,68.1362 88.97796,104.2085 56.9139,35.2704 119.43897,35.2704 91.3828,0 157.1142,-73.7474 65.7315,-73.7475 65.7315,-200.4007 0,-121.8437 -64.9299,-191.5833 -64.9299,-70.54096 -163.527,-70.54096 -97.79564,0 -165.93188,70.54096 -68.13616,69.7396 -68.13616,183.5672 z"/>
  </g>
</svg>
