<?xml version="1.0" encoding="UTF-8" standalone="no"?>
<svg
   width="1000"
   height="2000"
   viewBox="0 0 1000 2000"
   version="1.1"
   xmlns="http://www.w3.org/2000/svg"
   xmlns:svg="http://www.w3.org/2000/svg">
  <g>
    <path d="m 336.47324,942.68524 q -89.77961,-32.8657 -133.06613,-93.78745 -43.28644,-60.92174 -43.28644,-145.89177 0,-128.25638 92.18428,-215.63117 Q 344.48922,400 497.59548,400 q 153.90772,0 247.69532,89.77953 93.7875,88.97803 93.7875,217.23457 0,81.76353 -43.2865,142.68528 -42.485,60.12016 -129.8597,92.98586 108.2163,35.27076 164.3286,113.82776 56.9138,78.5572 56.9138,187.5751 0,150.7015 -106.6132,253.3067 Q 673.9481,1600 500.00023,1600 326.05242,1600 219.43924,1497.3948 112.826,1393.9878 112.826,1240.0802 q 0,-114.6293 57.71541,-191.5833 58.51699,-77.75538 165.93183,-105.81166 z M 307.61538,698.19652 q 0,83.36671 53.70749,136.27238 53.70756,52.90592 139.47903,52.90592 83.3666,0 136.2725,-52.10433 53.7074,-52.90568 53.7074,-129.05798 0,-79.35878 -55.3108,-133.06627 -54.5088,-54.50886 -136.27236,-54.50886 -82.56504,0 -137.07419,52.90568 -54.50907,52.906 -54.50907,126.65346 z m -46.49286,542.68518 q 0,61.7234 28.85764,119.4388 29.65936,57.7154 87.37485,89.7796 57.71541,31.2626 124.24839,31.2626 103.4069,0 170.7416,-66.5331 67.3345,-66.533 67.3345,-169.1384 0,-104.2081 -69.7393,-172.3446 -68.9381,-68.1362 -173.1463,-68.1362 -101.80366,0 -169.13832,67.3346 -66.53306,67.3346 -66.53306,168.3367 z"/>
  </g>
</svg>
