<?xml version="1.0" encoding="UTF-8" standalone="no"?>
<svg
   width="1000"
   height="2000"
   viewBox="0 0 1000 2000"
   version="1.1"
   xmlns="http://www.w3.org/2000/svg"
   xmlns:svg="http://www.w3.org/2000/svg">
  <g>
    <path d="m 135.25911,1308.2159 138.67737,-12.8251 q 17.63476,97.7955 67.33463,141.8839 49.69934,44.088 127.45496,44.088 66.53311,0 116.23241,-30.4609 50.501,-30.4609 82.5651,-80.9618 32.0642,-51.3028 53.7073,-137.8758 21.6438,-86.5733 21.6438,-176.3528 0,-9.619 -0.7908,-28.8576 -43.2866,68.9379 -118.6372,112.2243 -74.5493,42.4851 -161.9239,42.4851 -145.8918,0 -246.89372,-105.8115 -101.00238,-105.81178 -101.00238,-278.95801 0,-178.75754 105.01006,-287.77549 Q 324.44834,400 483.1657,400 q 114.62928,0 209.21858,61.72355 95.3909,61.72332 144.2886,176.35257 49.6994,113.82767 49.6994,330.26063 0,225.25045 -48.8979,359.11805 -48.8976,133.0664 -145.8917,202.8057 Q 595.39028,1600 465.53046,1600 327.65468,1600 240.28011,1523.8476 152.90528,1446.8938 135.27005,1308.2164 Z M 726.04058,789.57877 q 0,-124.24845 -66.533,-197.19436 -65.7314,-72.94591 -158.7173,-72.94591 -96.19245,0 -167.53524,78.55698 -71.34273,78.5572 -71.34273,203.60722 0,112.2245 67.33481,182.76572 68.13623,69.73928 167.53499,69.73928 100.20037,0 164.32857,-69.73928 64.9299,-70.54122 64.9299,-194.78965 z"/>
  </g>
</svg>
