<?xml version="1.0" encoding="UTF-8" standalone="no"?>
<svg
   width="500"
   height="2000"
   viewBox="0 0 500 2000"
   version="1.1"
   xmlns="http://www.w3.org/2000/svg"
   xmlns:svg="http://www.w3.org/2000/svg">
  <g>
    <path d="m 399.95336,1497.6178 c 1.2096,75.3932 -21.1702,149.9754 -60.9453,213.7997 -42.2571,67.6262 -101.49495,127.4906 -175.29077,159.8138 -19.60162,8.958 -61.57995,18.8277 -63.71729,-13.4435 14.59407,-26.8833 41.05368,-45.2551 60.65068,-68.4457 45.01153,-48.2521 77.48072,-109.9524 81.97097,-176.5715 0.0378,-16.0243 9.76621,-42.4329 -15.38413,-36.3077 -49.95386,-3.6511 -99.96417,-37.5969 -110.35425,-88.6382 -12.99611,-58.2499 0.47851,-128.782 52.02194,-164.6506 44.48299,-29.8249 105.07445,-29.3001 152.72795,-7.3422 33.8253,15.6338 59.4778,46.5457 67.4812,83.1151 8.6618,32.0861 10.721,65.5728 10.839,98.6708 z"/>
  </g>
</svg>
