<?xml version="1.0" encoding="UTF-8" standalone="no"?>
<svg
   width="8000"
   height="2000"
   viewBox="0 0 8000 2000"
   version="1.1"
   xmlns="http://www.w3.org/2000/svg"
   xmlns:svg="http://www.w3.org/2000/svg">
  <g>
    <path d="m 1358.3076,556.28627 q 69.1681,77.36944 105.6524,189.55513 37.2445,112.18568 37.2445,254.5454 0,142.3598 -38.0045,255.3192 -37.2445,112.1857 -104.8924,187.234 -69.9283,78.1432 -165.6997,117.6016 Q 1097.5967,1600 975.22223,1600 q -119.33414,0 -217.38567,-40.2321 -97.2916,-40.2321 -165.6997,-116.8279 -68.40809,-76.5957 -105.65243,-188.0077 -36.48429,-111.412 -36.48429,-254.5455 0,-140.81233 36.48429,-252.22432 Q 522.96873,635.97679 592.89702,556.28627 659.78491,480.46422 758.5966,440.23211 858.16833,400 975.22223,400 q 121.61437,0 218.14587,41.0058 97.2914,40.23211 164.9395,115.28047 z m -13.6816,444.10053 q 0,-224.37132 -98.8117,-345.84134 -98.8118,-122.24372 -269.83203,-122.24372 -172.54032,0 -271.35201,122.24372 -98.05164,121.47002 -98.05164,345.84134 0,226.6925 100.33189,347.3888 100.33189,119.9227 269.07176,119.9227 168.74003,0 268.31183,-119.9227 100.3319,-120.6963 100.3319,-347.3888 z"/>
    <path d="M 3039.6265,1576.0155 H 1739.8728 V 423.98453 h 150.4977 V 1442.94 h 424.1303 V 423.98453 h 150.4978 V 1442.94 h 424.1301 V 423.98453 h 150.4978 z"/>
    <path d="M 4207.8847,1576.0155 H 4058.147 V 652.99807 l -562.4665,923.01743 h -152.018 V 423.98453 h 149.7376 v 909.09087 l 555.6258,-909.09087 h 158.8588 z"/>
    <path d="m 5366.2619,1219.3424 q 0,83.559 -32.6838,151.6441 -31.9238,68.0851 -85.8902,110.6383 -63.8476,51.0638 -136.8161,72.7272 -72.9687,21.6635 -188.5024,21.6635 H 4511.9208 V 423.98453 h 757.8097 V 560.15474 H 4662.4187 V 875.82205 H 4926.93 q 115.5337,0 188.5023,13.9265 72.9685,13.15281 137.5763,64.21664 57.7668,45.64796 85.13,112.95941 28.1233,67.3114 28.1233,152.4178 z m -157.3386,3.0947 q 0,-58.027 -19.0023,-102.1276 -19.0022,-44.1006 -59.2869,-71.1799 -41.805,-28.6267 -96.5315,-34.8163 -54.7265,-6.1895 -154.2982,-6.1895 h -217.3857 v 437.1373 h 213.5852 q 101.092,0 155.0584,-10.058 54.7264,-10.058 95.7713,-38.6847 42.565,-30.1741 62.3274,-70.4062 19.7623,-41.0058 19.7623,-103.6751 z"/>
    <path d="M 6488.9149,1576.0155 H 6295.8521 L 5835.9977,1050.677 h -102.6121 v 525.3385 H 5582.8877 V 423.98453 h 150.4979 v 516.82785 q 38.7645,-0.77369 72.9686,-7.73694 34.204,-6.96325 64.6076,-26.30561 30.4036,-17.79497 60.0471,-50.29014 29.6435,-33.26885 52.4462,-81.2379 9.8811,-20.88975 22.8027,-52.61122 13.6816,-31.72148 27.3633,-66.53772 52.4461,-128.43327 122.3744,-180.2708 70.6884,-51.83752 207.5045,-51.83752 h 60.0472 v 136.94391 h -63.0875 q -52.4462,0 -82.0896,10.05802 -29.6436,9.28434 -53.2063,31.72147 -22.0427,20.11606 -38.7647,54.15861 -15.9618,34.04255 -33.444,79.69053 -39.5246,102.12765 -80.5695,150.0967 -40.2847,47.96906 -108.6928,83.559 z"/>
    <path d="m 7550.0004,1576.0155 h -160.379 l -110.9732,-321.0832 h -489.4979 l -110.9731,321.0832 h -152.778 L 6937.3678,423.98453 h 200.6638 z M 7232.2828,1123.4043 7033.8993,557.83366 6834.7557,1123.4043 Z"/>
  </g>
</svg>
