<?xml version="1.0" encoding="UTF-8" standalone="no"?>
<svg
   width="10000"
   height="2000"
   viewBox="0 0 10000 2000"
   version="1.1"
   xmlns="http://www.w3.org/2000/svg"
   xmlns:svg="http://www.w3.org/2000/svg">
  <g>
    <path d="m 1005.6196,1219.3424 q 0,83.559 -21.25599,151.644 -20.76153,68.0851 -55.85853,110.6383 -41.5232,51.0639 -88.97821,72.7273 -47.45505,21.6634 -122.59222,21.6634 H 450 V 423.98453 H 942.84049 V 560.15474 H 547.87604 v 315.66731 h 172.02455 q 75.13717,0 122.59222,13.9265 47.45505,13.1528 89.47254,64.21663 37.56855,45.64797 55.36424,112.95942 18.29001,67.3114 18.29001,152.4178 z m -102.32499,3.0947 q 0,-58.0271 -12.35808,-102.1276 -12.35809,-44.1006 -38.55725,-71.1799 -27.18779,-28.6267 -62.77908,-34.8163 -35.59129,-6.1895 -100.34766,-6.1895 h -141.3765 v 437.1374 h 138.90488 q 65.74502,0 100.84199,-10.0582 35.59128,-10.058 62.28475,-38.6847 27.68212,-30.174 40.5345,-70.4061 12.85245,-41.0058 12.85245,-103.6751 z"/>
    <path d="M 1628.9614,1576.0154 H 1144.0301 V 423.98453 h 484.9313 v 136.17021 h -387.0552 v 315.66731 h 387.0552 v 136.17025 h -387.0552 v 427.853 h 387.0552 z"/>
    <path d="m 2352.6509,1492.4565 q -27.1878,18.5687 -49.4323,34.8162 -21.7503,16.2476 -57.3416,34.0426 -30.1537,14.7001 -65.745,24.7582 -35.0969,10.8317 -77.6088,10.8317 -80.0804,0 -145.8254,-34.8162 -65.2507,-35.5899 -113.6944,-110.6383 -47.455,-73.501 -74.1485,-186.4604 -26.6934,-113.733 -26.6934,-263.8298 0,-142.35972 25.7047,-254.54541 25.7049,-112.18569 74.1485,-189.55513 46.9608,-75.04836 113.2001,-114.50677 66.7337,-39.45841 147.8028,-39.45841 59.3188,0 118.1432,22.43713 59.3188,22.43714 131.4901,78.91683 v 181.81818 h -7.4149 q -60.8017,-79.69052 -120.6149,-116.05416 -59.8131,-36.36363 -128.0298,-36.36363 -55.8585,0 -100.8419,28.62669 -44.4891,27.853 -79.5861,87.42746 -34.1083,58.02709 -53.387,147.00195 -18.7842,88.20115 -18.7842,204.25527 0,121.4701 20.7616,208.8975 21.2559,87.4275 54.3755,142.3598 34.6027,57.2534 80.5747,85.1064 46.4665,27.0793 97.8761,27.0793 70.6882,0 132.4787,-37.911 61.7904,-37.9111 115.6716,-113.7331 h 6.9206 z"/>
    <path d="M 3082.7667,1576.0154 H 2957.2085 L 2658.1428,1050.677 h -66.7336 v 525.3384 h -97.876 V 423.98453 h 97.876 v 516.82785 q 25.2104,-0.7737 47.455,-7.73694 22.2445,-6.96325 42.0175,-26.30561 19.7729,-17.79497 39.0516,-50.29014 19.2785,-33.26886 34.1083,-81.23791 6.4262,-20.88974 14.8297,-52.61121 8.8978,-31.72149 17.7956,-66.53773 34.1084,-128.43327 79.5861,-180.27079 45.9721,-51.83752 134.9503,-51.83752 h 39.0515 v 136.9439 h -41.0288 q -34.1083,0 -53.3869,10.05803 -19.2787,9.28433 -34.6027,31.72147 -14.3354,20.11605 -25.2105,54.1586 -10.3808,34.04255 -21.7502,79.69053 -25.7048,102.12766 -52.3983,150.09671 -26.1991,47.96905 -70.6882,83.559 z"/>
    <path d="m 3741.2054,556.28626 q 44.9834,77.36944 68.7109,189.55514 24.2219,112.18568 24.2219,254.5454 0,142.3598 -24.7162,255.3192 -24.2218,112.1857 -68.2166,187.234 -45.4777,78.1432 -107.7625,117.6016 Q 3571.6524,1600 3492.0664,1600 q -77.6088,0 -141.3765,-40.2321 -63.2734,-40.2321 -107.7625,-116.8279 -44.4892,-76.5957 -68.711,-188.0077 -23.7275,-111.4119 -23.7275,-254.5455 0,-140.81233 23.7275,-252.22432 23.7276,-112.1857 69.2053,-191.87622 43.5005,-75.82204 107.7625,-116.05415 Q 3415.9406,400 3492.0664,400 q 79.0917,0 141.8708,41.0058 63.2734,40.23211 107.2682,115.28046 z m -8.8979,444.10054 q 0,-224.37132 -64.262,-345.84135 -64.262,-122.24371 -175.4848,-122.24371 -112.2114,0 -176.4735,122.24371 -63.7677,121.47003 -63.7677,345.84135 0,226.6925 65.2507,347.3888 65.2507,119.9226 174.9905,119.9226 109.7398,0 174.4962,-119.9226 65.2506,-120.6963 65.2506,-347.3888 z"/>
    <path d="m 4552.3904,1576.0154 h -97.8761 V 1011.9923 H 4087.232 v 564.0231 h -97.876 V 423.98453 h 97.876 v 451.83752 h 367.2823 V 423.98453 h 97.8761 z"/>
    <path d="M 5235.0507,1576.0154 H 4750.1194 V 423.98453 h 484.9313 v 136.17021 h -387.0552 v 315.66731 h 387.0552 v 136.17025 h -387.0552 v 427.853 h 387.0552 z"/>
    <path d="m 5913.2628,1576.0154 h -97.8761 V 1088.588 q -63.7677,30.9478 -118.6376,47.1954 -54.3756,16.2476 -103.8079,16.2476 -48.938,0 -91.4499,-18.5688 -42.5118,-19.3423 -73.6541,-60.3481 -31.1425,-41.0058 -48.9381,-104.44872 -17.3013,-63.44294 -17.3013,-151.6441 V 423.98453 h 97.876 v 316.44101 q 0,67.31141 4.9433,114.50676 4.9432,46.42167 22.2445,83.559 17.3013,36.36363 45.4778,54.9323 28.1764,17.795 81.0691,17.795 55.8585,0 108.7511,-15.47392 52.8926,-15.47389 93.4271,-38.68472 V 423.98453 h 97.8761 z"/>
    <path d="m 6674.0265,1576.0154 h -97.876 v -564.0231 h -367.2824 v 564.0231 h -97.876 V 423.98453 h 97.876 v 451.83752 h 367.2824 V 423.98453 h 97.876 z"/>
    <path d="m 7420.4549,556.28626 q 44.9835,77.36944 68.711,189.55514 24.2218,112.18568 24.2218,254.5454 0,142.3598 -24.7161,255.3192 -24.2218,112.1857 -68.2167,187.234 -45.4777,78.1432 -107.7624,117.6016 Q 7250.902,1600 7171.316,1600 q -77.6088,0 -141.3766,-40.2321 -63.2733,-40.2321 -107.7625,-116.8279 -44.4891,-76.5957 -68.7109,-188.0077 -23.7275,-111.4119 -23.7275,-254.5455 0,-140.81233 23.7275,-252.22432 23.7275,-112.1857 69.2052,-191.87622 43.5005,-75.82204 107.7626,-116.05415 Q 7095.1901,400 7171.316,400 q 79.0917,0 141.8707,41.0058 63.2735,40.23211 107.2682,115.28046 z m -8.8978,444.10054 q 0,-224.37132 -64.262,-345.84135 -64.2621,-122.24371 -175.4848,-122.24371 -112.2115,0 -176.4735,122.24371 -63.7678,121.47003 -63.7678,345.84135 0,226.6925 65.2508,347.3888 65.2507,119.9226 174.9905,119.9226 109.7398,0 174.4961,-119.9226 65.2507,-120.6963 65.2507,-347.3888 z"/>
    <path d="m 8237.0772,1492.4565 q -27.1877,18.5687 -49.4324,34.8162 -21.7504,16.2476 -57.341,34.0426 -30.1542,14.7001 -65.7455,24.7582 -35.0971,10.8317 -77.6086,10.8317 -80.0808,0 -145.8256,-34.8162 -65.2504,-35.5899 -113.6942,-110.6383 -47.4551,-73.501 -74.1486,-186.4604 -26.6934,-113.733 -26.6934,-263.8298 0,-142.35972 25.7048,-254.54541 25.7048,-112.18569 74.1486,-189.55513 46.9609,-75.04836 113.2,-114.50677 66.7333,-39.45841 147.8027,-39.45841 59.319,0 118.1436,22.43713 59.3182,22.43714 131.4896,78.91683 v 181.81818 h -7.4144 q -60.8019,-79.69052 -120.6151,-116.05416 -59.8133,-36.36363 -128.0303,-36.36363 -55.8581,0 -100.8418,28.62669 -44.4887,27.853 -79.5858,87.42746 -34.1085,58.02709 -53.3867,147.00195 -18.7846,88.20115 -18.7846,204.25527 0,121.4701 20.7618,208.8975 21.2554,87.4275 54.3753,142.3598 34.6028,57.2534 80.5751,85.1064 46.4658,27.0793 97.8761,27.0793 70.6877,0 132.4781,-37.911 61.7904,-37.9111 115.6722,-113.7331 h 6.9201 z"/>
    <path d="M 8900.4594,560.15474 H 8637.4796 V 1576.0154 h -97.8761 V 560.15474 H 8276.6229 V 423.98453 h 623.8365 z"/>
    <path d="m 9447.6753,1222.4371 q 0,-58.0271 -12.3581,-102.1276 -12.3581,-44.1006 -38.5572,-71.1799 -27.1876,-28.6267 -62.779,-34.8163 -35.5913,-6.1895 -100.3475,-6.1895 h -136.4333 v 437.1374 h 133.9618 q 65.7448,0 100.8419,-10.0582 35.5913,-10.058 62.2847,-38.6847 27.6819,-30.174 40.5343,-70.4061 12.8524,-41.0058 12.8524,-103.6751 z M 9550,1219.3424 q 0,83.559 -21.2554,151.644 -20.7618,68.0851 -55.8589,110.6383 -41.5229,51.0639 -88.978,72.7273 -47.4552,21.6634 -122.5923,21.6634 H 8999.3241 V 423.98453 h 97.8761 v 451.83752 h 167.081 q 75.1371,0 122.5922,13.9265 47.4552,13.1528 89.4724,64.21663 37.5685,45.64797 55.3646,112.95942 Q 9550,1134.236 9550,1219.3424 Z"/>
  </g>
</svg>
