<?xml version="1.0" encoding="UTF-8" standalone="no"?>
<svg
   width="1000"
   height="2000"
   viewBox="0 0 1000 2000"
   version="1.1"
   xmlns="http://www.w3.org/2000/svg"
   xmlns:svg="http://www.w3.org/2000/svg">
  <g>
    <path d="M 470.01483,1400 H 379.46668 V 864.33845 L 314.04445,1211.9543 H 251.22964 L 185.80741,864.33845 V 1400 H 100 V 599.99997 h 105.71852 l 79.40741,401.34323 79.17038,-401.34323 h 105.71852 z"/>
    <path d="m 758.01492,844.99661 q 0,-30.0873 -5.452,-51.57824 -5.4517,-21.49093 -18.7258,-33.84822 -9.2445,-8.59637 -21.5705,-10.20819 -12.3259,-2.14909 -28.6813,-2.14909 h -32.9483 v 215.4466 h 27.9704 q 21.8074,0 36.5037,-4.83546 14.6963,-4.83546 24.6518,-22.0282 9.4815,-16.65548 13.7482,-36.53459 4.5038,-20.41639 4.5038,-54.26461 z M 900.00002,1400 h -111.1703 l -96.237,-293.3513 h -41.9557 V 1400 h -90.5482 V 599.99997 h 152.6519 q 31.2889,0 53.8075,8.0591 22.5184,8.0591 42.1926,34.92277 19.9111,26.86367 31.5258,69.84553 11.8519,42.4446 11.8519,106.9174 0,88.6501 -18.2517,144.52652 -18.0149,55.87641 -51.6741,92.94831 z"/>
  </g>
</svg>
