<?xml version="1.0" encoding="UTF-8" standalone="no"?>
<svg
   width="1000"
   height="2000"
   viewBox="0 0 1000 2000"
   version="1.1"
   xmlns="http://www.w3.org/2000/svg"
   xmlns:svg="http://www.w3.org/2000/svg">
  <g>
    <path d="M 497.58039,1385.0032 H 400.28654 V 869.42469 L 329.99045,1204.0078 H 262.49602 L 192.19994,869.42469 V 1385.0032 H 100 V 614.99677 H 213.5944 L 298.91755,1001.2928 383.986,614.99677 h 113.59439 z"/>
    <path d="m 765.7752,1400 q -42.2795,0 -78.1916,-25.3394 -35.6575,-25.3393 -61.3817,-75.5009 -25.7243,-50.1616 -39.9873,-125.1455 -14.0083,-74.9838 -14.0083,-173.2385 0,-91.532 13.4989,-165.99871 13.4989,-74.46671 39.2232,-127.7311 24.7055,-51.19586 61.127,-79.12088 Q 722.7316,600 766.0299,600 q 23.9415,0 43.0437,5.68843 19.3568,5.1713 35.6574,13.96251 17.0646,9.82546 30.8182,22.23658 14.0083,11.89399 24.4508,22.23659 V 850.80802 H 888.7934 Q 881.6619,838.3969 870.71,821.33161 860.0127,804.26632 846.2592,787.71816 832.2509,771.17001 815.9503,759.79315 799.6498,748.41629 781.057,748.41629 q -20.6304,0 -39.2232,13.44538 -18.5928,12.92825 -34.3839,43.43891 -15.0271,29.47641 -24.4508,78.08662 -9.1691,48.61021 -9.1691,117.9056 0,72.3982 9.9331,121.0084 10.1879,48.6102 25.4696,76.5353 15.5365,28.4421 34.6387,40.8532 19.1022,11.894 37.695,11.894 17.8287,0 35.148,-10.8597 17.5741,-10.8597 32.3464,-29.4764 12.4801,-14.9968 23.1774,-32.0621 10.6972,-17.0653 17.574,-29.4764 H 900 v 184.0983 q -14.263,12.9282 -27.2525,24.3051 -12.9895,11.3768 -27.2524,19.6509 -18.5928,10.8597 -34.8934,16.5482 Q 794.3012,1400 765.7752,1400 Z"/>
  </g>
</svg>
