<?xml version="1.0" encoding="UTF-8" standalone="no"?>
<svg
   width="1000"
   height="2000"
   viewBox="0 0 1000 2000"
   version="1.1"
   xmlns="http://www.w3.org/2000/svg"
   xmlns:svg="http://www.w3.org/2000/svg">
  <g>
    <path d="M 601.14011,1400 H 441.44456 L 350.18989,1222.9249 256.65385,1400 H 100 L 268.44091,1104.3478 102.6616,808.16866 h 159.69567 l 89.73376,173.91305 90.11398,-173.91305 h 157.0342 L 433.07955,1099.6048 Z"/>
    <path d="m 900.00001,993.50024 h -218.6316 v -63.76879 q 25.0614,-25.14461 50.1227,-53.39989 25.248,-28.25534 40.3971,-48.73393 22.6299,-30.32903 32.1683,-52.88143 9.5383,-22.5524 9.5383,-44.58633 0,-26.44074 -12.3437,-40.69799 -12.1564,-14.51644 -35.1606,-14.51644 -17.2062,0 -36.2829,9.85043 -18.8893,9.85049 -35.1606,25.14461 h -5.9847 v -85.80272 q 13.279,-8.0359 39.0882,-16.07185 25.9962,-8.03589 51.9929,-8.03589 52.3668,0 79.8596,30.58829 27.4924,30.32909 27.4924,86.06198 0,36.55039 -13.2786,69.47168 -13.092,32.9213 -40.2105,67.9164 -17.0192,21.77472 -34.2253,40.17952 -17.2066,18.14559 -24.5001,25.40387 h 125.1191 z"/>
  </g>
</svg>
